<?xml version="1.0" encoding="UTF-8"?>
<svg xmlns="http://www.w3.org/2000/svg" xmlns:xlink="http://www.w3.org/1999/xlink" viewBox="0 0 384 384" width="384px" height="384px">
<g id="surface42256097">
<path style=" stroke:none;fill-rule:nonzero;fill:#2ECC71;fill-opacity:1;" d="M 84.480469 192 C 84.480469 132.617188 132.617188 84.480469 192 84.480469 C 251.382812 84.480469 299.519531 132.617188 299.519531 192 C 299.519531 251.382812 251.382812 299.519531 192 299.519531 C 132.617188 299.519531 84.480469 251.382812 84.480469 192 Z M 192 284.160156 C 242.898438 284.160156 284.160156 242.898438 284.160156 192 C 284.160156 141.101562 242.898438 99.839844 192 99.839844 C 141.101562 99.839844 99.839844 141.101562 99.839844 192 C 99.839844 242.898438 141.101562 284.160156 192 284.160156 Z M 192 284.160156 "/>
<path style=" stroke:none;fill-rule:nonzero;fill:#2ECC71;fill-opacity:1;" d="M 243.390625 158.34375 L 180.511719 221.222656 L 156.609375 197.320312 L 148.734375 205.191406 L 180.511719 236.96875 L 251.265625 166.21875 Z M 243.390625 158.34375 "/>
</g>
</svg>
