<?xml version="1.0" standalone="no"?>
<!DOCTYPE svg PUBLIC "-//W3C//DTD SVG 20010904//EN"
 "http://www.w3.org/TR/2001/REC-SVG-20010904/DTD/svg10.dtd">
<svg version="1.0" xmlns="http://www.w3.org/2000/svg"
 width="300.000000pt" height="300.000000pt" viewBox="0 0 300.000000 300.000000"
 preserveAspectRatio="xMidYMid meet">
<metadata>
Created by potrace 1.10, written by Peter Selinger 2001-2011
</metadata>
<g transform="translate(0.000000,300.000000) scale(0.100000,-0.100000)"
fill="#ff2828" stroke="none">
<path d="M1300 2854 c-25 -7 -60 -14 -78 -14 -18 0 -49 -7 -69 -15 -19 -8 -47
-15 -62 -15 -14 0 -35 -7 -45 -15 -11 -8 -29 -15 -41 -15 -12 0 -30 -7 -41
-15 -10 -8 -26 -15 -35 -15 -9 0 -22 -7 -29 -15 -7 -8 -19 -15 -27 -15 -8 0
-35 -13 -60 -30 -24 -16 -47 -30 -50 -30 -3 0 -22 -13 -43 -30 -21 -16 -43
-30 -49 -30 -20 0 -259 -244 -303 -310 -24 -36 -47 -72 -51 -80 -4 -8 -16 -28
-27 -45 -11 -16 -22 -37 -26 -45 -3 -8 -10 -22 -15 -30 -5 -8 -12 -22 -15 -30
-3 -8 -12 -28 -20 -43 -7 -16 -14 -36 -14 -46 0 -9 -7 -26 -15 -37 -8 -10 -15
-32 -15 -49 0 -16 -7 -41 -15 -55 -8 -14 -15 -43 -15 -65 0 -22 -7 -65 -15
-95 -9 -35 -15 -101 -15 -180 0 -79 6 -145 15 -180 8 -30 15 -73 15 -95 0 -22
7 -51 15 -65 8 -14 15 -38 15 -55 0 -16 7 -39 15 -49 8 -11 15 -28 15 -37 0
-15 15 -52 42 -99 4 -8 11 -22 14 -30 12 -31 15 -36 34 -65 11 -16 23 -37 27
-45 4 -8 27 -44 51 -80 47 -67 283 -310 303 -310 6 0 28 -13 48 -28 20 -16 43
-32 51 -35 8 -4 29 -16 45 -27 17 -11 37 -23 45 -26 8 -3 42 -19 75 -35 33
-16 67 -29 76 -29 8 0 24 -7 35 -15 10 -8 30 -15 43 -15 13 0 44 -6 70 -14
146 -45 395 -60 516 -31 33 8 78 15 100 15 22 0 51 7 65 15 14 8 36 15 50 15
14 0 34 7 44 15 11 8 28 15 37 15 15 0 52 15 99 42 8 4 22 11 30 14 8 3 22 10
30 15 8 5 22 12 30 16 8 3 53 31 100 61 133 87 352 316 403 422 4 8 16 29 27
45 11 17 22 37 26 45 3 8 10 22 15 30 5 8 12 22 15 30 3 8 11 29 18 45 21 48
37 97 46 135 4 19 13 49 18 65 38 109 53 399 28 508 -9 38 -16 83 -16 100 -1
18 -7 43 -15 57 -8 14 -15 39 -15 55 0 17 -7 39 -15 49 -8 11 -15 27 -15 35 0
9 -13 43 -29 76 -16 33 -32 67 -35 75 -3 8 -15 29 -26 45 -11 17 -23 37 -27
45 -51 106 -270 335 -403 422 -47 30 -92 58 -100 61 -8 4 -23 11 -32 17 -10 5
-26 15 -35 20 -10 6 -25 13 -33 16 -8 3 -28 12 -43 20 -16 7 -36 14 -46 14 -9
0 -26 7 -37 15 -10 8 -29 15 -40 15 -12 0 -38 7 -57 15 -20 8 -54 15 -75 15
-21 0 -61 7 -88 15 -65 20 -311 19 -374 -1z m398 -120 c37 -8 85 -20 107 -25
22 -6 51 -13 65 -15 24 -5 66 -22 123 -50 16 -8 34 -14 42 -14 7 0 18 -7 25
-15 7 -8 18 -15 26 -15 13 0 113 -65 189 -123 94 -72 232 -228 281 -317 10
-19 25 -39 32 -43 6 -4 12 -16 12 -26 0 -10 7 -24 15 -31 8 -7 15 -18 15 -25
0 -8 6 -26 14 -42 8 -15 21 -46 29 -68 8 -22 20 -56 27 -75 7 -19 16 -60 21
-90 4 -30 13 -73 19 -95 14 -51 8 -319 -9 -400 -19 -90 -41 -167 -57 -198 -8
-16 -14 -35 -14 -44 0 -8 -6 -27 -14 -41 -8 -15 -17 -34 -20 -42 -4 -8 -15
-28 -25 -45 -11 -16 -29 -48 -41 -69 -56 -102 -193 -254 -305 -337 -72 -54
-138 -96 -168 -109 -12 -6 -29 -14 -37 -19 -8 -5 -32 -16 -52 -25 -21 -9 -53
-22 -70 -30 -18 -8 -44 -17 -58 -19 -14 -3 -38 -10 -55 -15 -105 -36 -412 -55
-504 -32 -25 7 -68 16 -96 20 -53 8 -103 24 -148 46 -16 8 -35 14 -43 14 -8 0
-40 14 -71 30 -31 17 -59 30 -64 30 -9 0 -122 76 -184 123 -94 72 -232 228
-281 317 -10 19 -22 37 -26 40 -4 3 -12 17 -17 30 -6 14 -15 32 -20 40 -5 8
-16 31 -24 50 -14 32 -23 56 -57 150 -7 19 -16 60 -20 90 -5 30 -13 71 -19 90
-14 44 -14 314 -1 360 6 19 14 60 19 90 5 30 14 71 21 90 7 19 19 53 27 75 8
22 21 53 29 68 8 16 14 34 14 42 0 7 7 18 15 25 8 7 15 18 15 26 0 13 67 115
124 189 39 51 150 162 201 201 61 47 175 124 184 124 5 0 33 14 64 30 31 17
63 30 71 30 8 0 27 6 43 14 46 23 95 38 153 47 30 5 69 13 85 18 52 16 319 13
393 -5z"/>
<path d="M1034 2085 c-5 -11 -1 -22 7 -29 15 -12 77 -89 94 -118 6 -9 51 -76
100 -148 50 -72 95 -139 100 -148 6 -9 30 -43 54 -75 l43 -59 -18 -34 c-10
-19 -22 -34 -26 -34 -4 0 -13 -11 -20 -24 -7 -14 -40 -64 -73 -111 -33 -47
-64 -94 -70 -103 -5 -9 -22 -33 -37 -53 -16 -20 -28 -40 -28 -43 0 -4 -29 -46
-65 -93 -69 -91 -77 -119 -35 -116 138 9 142 10 166 39 13 16 23 33 24 38 0 4
14 25 30 46 17 21 30 41 30 45 0 4 14 24 30 45 17 21 30 41 30 45 0 4 12 24
28 44 36 48 51 72 58 94 4 9 10 17 14 17 5 0 11 14 15 30 10 44 50 42 69 -2 7
-18 43 -77 80 -132 36 -54 66 -101 66 -103 0 -3 13 -22 28 -42 16 -20 32 -43
35 -51 4 -8 16 -28 27 -45 11 -16 23 -36 26 -42 4 -8 26 -13 53 -13 25 -1 66
-5 91 -10 25 -5 49 -5 53 0 10 9 -10 51 -29 63 -8 4 -14 14 -14 21 0 7 -13 26
-30 42 -16 16 -30 33 -30 38 0 4 -12 25 -27 45 -16 20 -32 44 -38 53 -36 60
-194 289 -225 326 -8 9 -6 19 7 37 10 13 21 25 25 25 3 0 17 17 29 38 13 20
42 63 66 94 24 31 43 59 43 63 0 4 20 33 45 65 25 32 45 61 45 65 0 4 20 33
45 65 25 32 45 62 45 67 0 5 14 21 31 36 42 37 33 62 -19 53 -20 -3 -60 -6
-89 -6 -48 0 -52 -2 -74 -37 -13 -21 -26 -42 -28 -48 -2 -5 -17 -26 -32 -46
-16 -20 -29 -40 -29 -44 0 -4 -12 -24 -27 -44 -16 -20 -34 -45 -40 -56 -7 -11
-38 -62 -69 -113 l-57 -93 -23 22 c-13 13 -24 27 -24 32 0 8 -42 79 -92 156
-10 14 -21 33 -25 41 -3 8 -18 31 -33 50 -15 19 -30 42 -33 50 -4 8 -16 29
-27 45 -11 17 -26 42 -35 58 -14 24 -21 27 -73 27 -31 0 -74 3 -94 6 -30 5
-39 3 -44 -11z"/>
</g>
</svg>
